<?xml version="1.0" standalone="no"?><!DOCTYPE svg PUBLIC "-//W3C//DTD SVG 1.1//EN" "http://www.w3.org/Graphics/SVG/1.1/DTD/svg11.dtd"><svg t="1781084953882" class="icon" viewBox="0 0 1024 1024" version="1.1" xmlns="http://www.w3.org/2000/svg" p-id="19397" xmlns:xlink="http://www.w3.org/1999/xlink" width="64" height="64"><path d="M927.996 925.996H98.004V98.152h829.991v827.844h0.001z m-44.564-783.397H142.568v738.948h740.864V142.599z m-387.15 0h33.203l0.075 738.948h-33.278M143.099 474.976l740.333 0.159v36.939H142.568v-36.948l0.531-0.15z" fill="#7dc5eb" p-id="19398"></path><path d="M400.741 361.762c-5.958-6.372-19.466-25.08-21.42-42.618-2.558-22.436-1.196-39.087 20.643-59.402 14.914-13.873 39.536-10.973 53.439 3.897 13.9 14.866 19.203 39.712 14.526 55.478-16.381-17.519-33.75-21.715-53.19-3.631-12.251 11.396-12.849 28.331-4.409 37.357 5.592-5.202 14.678-7.2 21.131-0.299-6.227 1.327-11.18 2.956-15.173 6.67 5.958 6.372 15.037 11.825 25.061 12.424-3.898-6.297-5.737-12.527-1.477-16.49 5.061-4.708 15.067-3.595 20.776 2.511 5.957 6.371 6.942 14.882 0.549 20.828-10.653 9.909-34.496 6.775-53.433-11.345l-5.326 4.954c6.207 6.638 11.701 11.452 17.02 13.947 3.798 1.925 7.347 3.593 9.828 6.247 3.473 3.714 62.928 69.241 67.597 82.762-13.194-5.591-83.298-61.212-86.771-64.926-2.481-2.654-3.902-6.301-5.568-10.21-2.124-5.467-6.553-11.272-12.76-17.91l-5.328 4.956c16.806 20.103 18.278 44.047 7.625 53.957-6.388 5.943-14.833 4.372-20.79-2-5.709-6.106-6.126-16.139-1.065-20.847 4.261-3.963 10.36-1.697 16.39 2.617 0.094-10.012-4.724-19.428-10.682-25.8-3.993 3.715-5.967 8.529-7.728 14.633-6.453-6.901-3.821-15.803 1.771-21.004-8.44-9.026-25.418-9.611-37.669 1.785-19.441 18.084-16.456 35.661-0.075 53.18-16.094 3.556-40.572-3.454-54.472-18.32-13.903-14.869-15.09-39.569-0.177-53.442 21.84-20.316 38.588-20.512 60.849-16.404 17.404 3.167 35.175 17.909 41.133 24.281l4.26-3.963c-14.149-15.132-35.224-23.819-54.309-30.387-8.905-3.133-19.583-7.099-25.789-13.736-7.448-7.965-11.911-20.192-15.517-34.702-3.63-13.996-9.344-34.492-15.474-50.628 15.715 7.22 35.813 14.337 49.562 18.919 14.262 4.598 26.179 9.891 33.627 17.856 6.207 6.638 9.429 17.537 11.942 26.617 5.236 19.451 12.461 41.021 26.61 56.153l4.263-3.965zM382.77 607.339c-6.421 5.907-25.253 19.276-42.847 21.128-22.508 2.427-39.194 0.976-59.44-20.919-13.827-14.952-10.782-39.494 4.203-53.278 14.981-13.781 39.921-18.933 55.701-14.181-17.655 16.241-21.958 33.542-3.935 53.032 11.358 12.282 28.333 12.972 37.428 4.605-5.184-5.607-7.137-14.679-0.183-21.077 1.296 6.218 2.901 11.167 6.604 15.171 6.421-5.907 11.939-14.932 12.595-24.927-6.335 3.853-12.591 5.653-16.541 1.382-4.692-5.074-3.521-15.048 2.633-20.708 6.421-5.907 14.959-6.841 20.885-0.432 9.876 10.68 6.601 34.443-11.671 53.231l4.937 5.339c6.689-6.154 11.547-11.607 14.077-16.899 1.951-3.777 3.643-7.308 6.318-9.768 3.743-3.444 69.768-62.38 83.35-66.963-5.679 13.129-61.831 82.742-65.574 86.186-2.674 2.46-6.339 3.857-10.268 5.497-5.493 2.088-11.337 6.474-18.027 12.628l4.939 5.341c20.248-16.651 44.262-17.987 54.138-7.306 5.923 6.405 4.301 14.819-2.12 20.725-6.153 5.661-16.215 6.02-20.907 0.946-3.95-4.271-1.644-10.342 2.715-16.333-10.037-0.15-19.504 4.604-25.926 10.511 3.702 4.004 8.518 5.999 14.628 7.789-6.955 6.398-15.864 3.723-21.048-1.882-9.096 8.367-9.776 25.299 1.581 37.581 18.023 19.491 35.662 16.611 53.316 0.37 3.476 16.072-3.688 40.447-18.669 54.228-14.985 13.785-39.755 14.832-53.58-0.119-20.247-21.896-20.351-38.601-16.109-60.782 3.272-17.341 18.15-34.984 24.571-40.892l-3.95-4.271c-15.249 14.028-24.076 35-30.766 53.999-3.19 8.865-7.225 19.492-13.914 25.646-8.027 7.384-20.31 11.768-34.878 15.285-14.052 3.543-34.633 9.129-50.845 15.153 7.326-15.634 14.572-35.641 19.243-49.328 4.689-14.2 10.061-26.056 18.089-33.441 6.689-6.154 17.634-9.308 26.751-11.764 19.53-5.114 41.196-12.201 56.445-26.23l-3.949-4.273zM643.802 608.818c6.364 5.969 25.064 19.52 42.639 21.542 22.484 2.645 39.183 1.356 59.641-20.342 13.972-14.818 11.166-39.387-3.683-53.317-14.846-13.926-39.734-19.319-55.56-14.72 17.496 16.411 21.63 33.753 3.418 53.067-11.477 12.172-28.458 12.697-37.472 4.242 5.239-5.556 7.28-14.61 0.388-21.074-1.357 6.205-3.01 11.138-6.751 15.106-6.364-5.969-11.793-15.047-12.352-25.048 6.297 3.915 12.535 5.775 16.526 1.542 4.741-5.028 3.667-15.013-2.431-20.733-6.363-5.969-14.892-6.986-20.88-0.635-9.979 10.584-6.937 34.378 11.151 53.342l-4.989 5.291c-6.629-6.218-11.433-11.718-13.912-17.034-1.915-3.796-3.572-7.343-6.222-9.829-3.709-3.48-69.157-63.053-82.694-67.767 5.551 13.184 61.022 83.338 64.732 86.817 2.65 2.486 6.301 3.918 10.214 5.596 5.472 2.141 11.273 6.583 17.903 12.802l-4.991 5.293c-20.085-16.846-44.084-18.415-54.065-7.83-5.985 6.347-4.445 14.776 1.918 20.745 6.098 5.72 16.155 6.177 20.896 1.149 3.991-4.233 1.744-10.326-2.555-16.359 10.038-0.052 19.459 4.792 25.822 10.762-3.741 3.968-8.576 5.916-14.703 7.647 6.892 6.465 15.827 3.877 21.066-1.678 9.014 8.455 9.529 25.393-1.947 37.564-18.212 19.315-35.822 16.265-53.317-0.147-3.632 16.038 3.294 40.481 18.14 54.407 14.85 13.93 39.608 15.216 53.579 0.4 20.46-21.698 20.726-38.402 16.7-60.623-3.103-17.372-17.808-35.159-24.172-41.128l3.991-4.233c15.112 14.175 23.734 35.232 30.239 54.295 3.104 8.895 7.035 19.561 13.664 25.78 7.955 7.462 20.194 11.964 34.727 15.622 14.017 3.679 34.543 9.464 50.695 15.645-7.173-15.704-14.224-35.78-18.761-49.512-4.551-14.245-9.807-26.153-17.762-33.615-6.629-6.218-17.543-9.478-26.635-12.023-19.479-5.303-41.075-12.6-56.187-26.775l3.992-4.234zM618.479 354.52c5.491-6.777 17.636-26.392 18.34-44.024 0.959-22.561-1.582-39.073-24.809-57.795-15.862-12.785-40.215-8.153-53.028 7.661-12.81 15.81-16.335 40.969-10.551 56.365 15.096-18.632 32.123-24.044 52.799-7.379 13.03 10.502 14.828 27.352 7.05 36.951-5.948-4.794-15.152-6.145-21.099 1.194 6.305 0.884 11.361 2.159 15.609 5.582-5.491 6.777-14.159 12.858-24.116 14.163 3.441-6.557 4.834-12.901 0.302-16.553-5.383-4.339-15.284-2.522-20.546 3.972-5.49 6.776-5.867 15.335 0.931 20.815 11.33 9.132 34.89 4.321 52.494-15.091l5.664 4.565c-5.72 7.06-10.858 12.25-15.987 15.114-3.652 2.189-7.073 4.103-9.36 6.926-3.201 3.95-57.854 73.512-61.551 87.329 12.764-6.509 78.743-66.942 81.944-70.892 2.287-2.822 3.445-6.561 4.829-10.578 1.731-5.603 5.736-11.706 11.456-18.766l5.666 4.567c-15.337 21.24-15.105 45.227-3.775 54.36 6.794 5.476 15.106 3.313 20.596-3.463 5.261-6.494 4.964-16.531-0.418-20.87-4.531-3.652-10.454-0.961-16.164 3.768-0.805-9.98 3.332-19.713 8.823-26.49 4.247 3.423 6.558 8.086 8.748 14.05 5.947-7.339 2.689-16.033-3.258-20.826 7.778-9.599 24.672-11.382 37.701-0.88 20.676 16.666 18.947 34.409 3.851 53.041 16.306 2.41 40.224-6.311 53.034-22.121 12.813-15.814 12.243-40.536-3.618-53.32-23.228-18.722-39.947-17.735-61.861-12.065-17.136 4.389-33.815 20.348-39.306 27.125l-4.531-3.652c13.039-16.093 33.444-26.247 52.015-34.147 8.66-3.754 19.029-8.464 24.749-15.523 6.864-8.471 10.447-20.983 13.014-35.711 2.627-14.218 6.872-35.066 11.84-51.594-15.163 8.312-34.705 16.83-48.094 22.373-13.9 5.594-25.411 11.715-32.275 20.187-5.72 7.059-8.161 18.159-10.023 27.393-3.841 19.772-9.517 41.798-22.556 57.891l-4.529-3.652z" fill="#7dc5eb" p-id="19399"></path></svg>