<?xml version="1.0" standalone="no"?><!DOCTYPE svg PUBLIC "-//W3C//DTD SVG 1.1//EN" "http://www.w3.org/Graphics/SVG/1.1/DTD/svg11.dtd"><svg t="1781081487853" class="icon" viewBox="0 0 1024 1024" version="1.1" xmlns="http://www.w3.org/2000/svg" p-id="17460" width="64" height="64" xmlns:xlink="http://www.w3.org/1999/xlink"><path d="M502.784865 540.992932a28.8 28.8 0 1 0 22.042566-53.215461 28.8 28.8 0 1 0-22.042566 53.215461Z" p-id="17461" fill="#56d4fd"></path><path d="M546.227437 571.565131a28.8 28.8 0 1 0 40.72864-40.730061 28.8 28.8 0 1 0-40.72864 40.730061Z" p-id="17462" fill="#56d4fd"></path><path d="M510.899587 613.2775a28.8 28.8 0 1 0 56.05834-13.237167 28.8 28.8 0 1 0-56.05834 13.237167Z" p-id="17463" fill="#56d4fd"></path><path d="M453.961852 623.878215a28.8 28.8 0 1 0 40.72864-40.730062 28.8 28.8 0 1 0-40.72864 40.730062Z" p-id="17464" fill="#56d4fd"></path><path d="M431.48202 548.315339a28.8 28.8 0 1 0 56.856958-9.222057 28.8 28.8 0 1 0-56.856958 9.222057Z" p-id="17465" fill="#56d4fd"></path><path d="M937.4 407.2c-0.3-1.7-0.6-3.4-1-5.1-0.4-1.6-1-3.1-1.6-4.7-2.4-5.9-5.7-10.4-9-14-3.4-3.6-7-6.4-10.6-8.7-3.7-2.3-7.3-4.2-11.1-5.7-3.7-1.6-7.5-2.7-11.3-3.6-3.9-0.9-7.6-1.6-11.7-1.8l-2 3.4c2.7 1.8 5.5 3.8 8.1 5.9 2.6 2.1 5.2 4.2 7.6 6.5 4.8 4.6 9.3 9.5 12.4 15.1 3.2 5.5 5 11.6 3.4 17.2-0.7 2.8-2.2 5.4-4.1 7.7l-1.5 1.7c-0.5 0.6-1.1 1.1-1.7 1.6l-0.9 0.8c-0.3 0.3-0.6 0.5-0.9 0.7l-1.9 1.4c-0.3 0.2-0.6 0.5-1 0.7l-1.1 0.7-2.1 1.3-2.7 1.7-8.1-9.1c-18.4-20.7-69.9-69.6-151.1-76.8-31.1-2.7-58.8 1.4-81.7 8-0.8-9-2-18-3.7-26.8C632.5 244.5 582.2 190.7 547 162c-0.8-3.3-1.7-6.7-2.6-10-0.6-1.9-1.3-3.9-1.9-5.8-0.7-1.9-1.3-3.8-2-5.8l-2.5-5.9c-0.4-1-0.8-1.9-1.3-2.9l-0.6-1.4-0.9-1.8-1.8-3.6-0.5-0.9-0.6-1-1.2-1.9-1.2-1.9-0.6-0.9c-0.2-0.3-0.5-0.6-0.7-1-0.9-1.3-1.9-2.5-2.9-3.8-0.5-0.6-1.1-1.2-1.7-1.9l-1.8-1.8-1.8-1.8c-0.7-0.6-1.4-1.2-2.1-1.7-2.7-2.3-6-4.3-9.3-5.9-1.7-0.8-3.5-1.5-5.2-2.1-1.8-0.5-3.6-0.9-5.3-1.3-1.7-0.3-3.5-0.5-5.2-0.6-1.7-0.1-3.3 0-4.9 0-6.3 0.4-11.6 2.2-16.1 4.3-4.5 2.1-8.3 4.6-11.6 7.4-3.3 2.8-6.2 5.6-8.8 8.8-2.6 3-4.9 6.3-7 9.6-2 3.4-3.9 6.8-5.3 10.6l2.6 3c2.6-2 5.3-4 8.1-5.9 2.8-1.9 5.6-3.6 8.5-5.2 5.8-3.2 11.9-5.9 18.2-7.1 6.2-1.3 12.6-1.1 17.4 2.1 2.4 1.6 4.4 3.7 6.1 6.2l1.2 2c0.4 0.6 0.7 1.4 1 2.1l0.5 1.1c0.2 0.3 0.3 0.7 0.4 1.1l0.8 2.2c0.1 0.4 0.3 0.7 0.4 1.1l0.3 1.2 0.6 2.4 0.2 0.8-11.7 8.2c-39.4 27.6-107.9 88.4-124.3 184.8-0.1 0.6-0.2 1.3-0.3 1.9-7.3-2.9-14.7-5.4-22.3-7.3-112.1-28.9-204.1 60.1-214.2 70.3l-0.1 1h-1.1c-2 0-4 0-6.1 0.1l-6.3 0.5c-1 0.1-2.1 0.2-3.1 0.3l-1.6 0.2-2 0.3c-1.3 0.2-2.7 0.4-4 0.6l-1 0.2-1.1 0.2-2.1 0.5-2.1 0.5-1.1 0.3c-0.4 0.1-0.8 0.2-1.1 0.4-1.5 0.5-3 1-4.5 1.6-0.7 0.3-1.5 0.6-2.3 1l-2.3 1.1c-0.8 0.4-1.5 0.8-2.3 1.2-0.8 0.5-1.5 1-2.3 1.5-3 1.9-5.9 4.4-8.5 7-1.3 1.4-2.5 2.8-3.6 4.3-1 1.5-2 3.1-2.9 4.6-0.8 1.6-1.5 3.2-2.2 4.7-0.6 1.6-1 3.1-1.5 4.7-1.5 6.2-1.5 11.7-0.9 16.6 0.6 4.9 1.9 9.3 3.5 13.3s3.4 7.7 5.6 11.1c2.1 3.4 4.5 6.6 7 9.6 2.6 3 5.3 5.8 8.4 8.3l3.7-1.6c-1.2-3.1-2.2-6.3-3.1-9.5-0.9-3.2-1.7-6.5-2.3-9.7-1.2-6.5-1.9-13.2-1.2-19.5 0.7-6.3 2.8-12.3 7.4-15.9 2.2-1.8 4.9-3 7.8-3.8l2.2-0.5c0.7-0.2 1.5-0.2 2.3-0.3l1.2-0.1c0.4-0.1 0.8-0.1 1.2-0.1H114.3l1.2 0.1 2.5 0.2 5 0.3 2.1 0.3 0.6 1.5C142.8 485.7 178 551.3 248 598.3c8.3 5.6 16.9 10.8 25.8 15.5-4.4 6.2-8.5 12.5-12.2 19-42.6 74.6-31.6 153.8-19.3 199-1.5 3.6-2.9 7.2-4.3 10.8-0.7 1.9-1.3 3.9-1.9 5.8-0.6 2-1.2 3.8-1.8 5.8l-1.5 6.2c-0.2 1-0.5 2-0.7 3.1l-0.3 1.5-0.4 2c-0.2 1.3-0.5 2.7-0.7 4l-0.2 1-0.1 1.1-0.2 2.2-0.1 2.2-0.1 1.1v1.2c0 1.6 0.1 3.2 0.1 4.8 0 0.8 0.1 1.6 0.2 2.5l0.4 2.5c0.1 0.8 0.3 1.7 0.4 2.5 0.2 0.9 0.4 1.8 0.7 2.6 0.8 3.4 2.3 7 4.1 10.2 1 1.6 1.9 3.2 3 4.7s2.3 2.9 3.5 4.2c1.3 1.2 2.5 2.4 3.8 3.5 1.3 1.1 2.7 1.9 4 2.8 5.4 3.4 10.7 5.1 15.5 6 4.9 0.9 9.4 1.1 13.7 0.8 4.3-0.3 8.4-0.9 12.3-1.9 3.9-0.9 7.7-2.2 11.3-3.7 3.6-1.6 7.1-3.2 10.5-5.5l-0.4-4c-3.3 0.2-6.7 0.1-10 0s-6.7-0.4-10-0.8c-6.6-0.8-13.1-2.3-18.9-4.9-5.8-2.6-10.9-6.5-12.9-11.9-1-2.7-1.4-5.6-1.2-8.6l0.2-2.3c0-0.8 0.3-1.5 0.4-2.3l0.2-1.1c0.1-0.4 0.2-0.8 0.3-1.1l0.4-1.4 21.3-0.8c44.1-1.7 109.9-12.9 173.3-56.5 14.1-9.7 27.4-20.5 39.9-32.4 10.8 13.8 23 26.5 36.4 37.8 62.6 52.9 134.2 61.8 175.4 61.8 2.5 0 4.9 0 7.2-0.1l2.2-0.1c0.4 0.3 0.9 0.6 1.3 1 1.7 1.2 3.3 2.4 5 3.5l5.4 3.3c0.9 0.5 1.8 1.1 2.7 1.6l1.4 0.8 1.8 1c1.2 0.6 2.4 1.3 3.6 1.9l0.9 0.5 1 0.4 2 0.8 2 0.8 1 0.4c0.3 0.1 0.8 0.2 1.1 0.4 1.5 0.5 3 0.9 4.6 1.3 0.7 0.2 1.6 0.4 2.4 0.5l2.5 0.4c0.8 0.1 1.7 0.3 2.5 0.4 0.9 0.1 1.8 0.1 2.7 0.2 3.5 0.3 7.4-0.1 11-0.7 1.8-0.4 3.7-0.8 5.4-1.4 1.7-0.6 3.4-1.3 5.1-2.1 1.6-0.8 3.1-1.7 4.5-2.6 1.4-0.9 2.7-1.9 3.9-2.9 4.9-4.1 8.1-8.6 10.5-12.9 2.4-4.4 4-8.6 5-12.8 1-4.2 1.7-8.2 2-12.3 0.3-4 0.3-8 0-11.9-0.4-3.9-0.9-7.8-1.9-11.7l-3.9-0.9c-0.9 3.2-1.9 6.4-3.1 9.5-1.2 3.1-2.4 6.2-3.8 9.2-2.8 6-6.2 11.8-10.5 16.5-4.2 4.7-9.5 8.3-15.3 8.6-2.9 0.2-5.8-0.4-8.6-1.5l-2.1-0.9c-0.7-0.3-1.4-0.7-2-1.1l-1-0.6c-0.3-0.2-0.7-0.4-1-0.6l-1.9-1.4c-0.3-0.2-0.6-0.4-1-0.7l-1-0.8-1.9-1.6-3.2-2.7c7.3-13.1 16.5-33 23-58.2 10.5-41.4 9.8-82.1-2.1-121.1-6.8-22.3-16.6-41.4-27.3-57.4 7.9-3.1 15.6-6.5 23.1-10.4 71.4-37 105.7-101.6 121.1-142.7l4.5-2.5c3.4-2.1 6.7-4.2 10-6.3 1.7-1.2 3.3-2.4 4.9-3.6 1.6-1.2 3.3-2.4 4.9-3.7l4.8-4.1 2.4-2.1 1.2-1.1 1.4-1.4c1-0.9 1.9-1.9 2.9-2.9l0.7-0.7 0.7-0.8 1.4-1.7 1.4-1.7 0.7-0.8c0.2-0.3 0.5-0.6 0.7-1l2.7-3.9c0.4-0.6 0.8-1.4 1.3-2.2l1.2-2.3c0.4-0.8 0.8-1.5 1.1-2.3 0.3-0.8 0.7-1.7 1-2.5 1.3-3.3 2.2-7 2.7-10.7 0.2-1.9 0.4-3.7 0.4-5.6 0.5-1.5 0.4-3.3 0.2-5.1zM731.5 557c-18 9.4-37.9 15.3-58.9 17.8l-79.2 9.1 60.3 52.1c15.7 13.6 36.7 37 47.3 71.5 12 39.3 5 75.3-3.8 99.7-6.6-9.4-13-19-19.3-28.6-7.4-11.4-14.6-23-22.1-34.4l-22.4-34.3c-7.5-11.4-15-22.8-22.2-34.2l-3.5 2c0.2 7.9 1.3 15.2 2.6 22.5 1.3 7.3 2.9 14.3 4.8 21.3 1.9 6.9 3.9 13.7 6.2 20.4 1.1 3.3 2.3 6.6 3.5 9.9 1.2 3.2 2.4 6.4 3.7 9.6 6.6 16.7 14.3 33.1 23.5 49-23.8-6.3-49.9-17.8-73.9-38.1-18.7-15.8-34.1-35.3-45.8-57.8l-25.2-48.9-33.6 43.4c-16.1 20.9-35.1 38.9-56.4 53.5-38.1 26.2-77.6 37.4-109.6 41.8-0.2-0.8-0.4-1.7-0.6-2.5 6.8-9 13.7-17.9 20.8-26.7 8.5-10.6 17.3-21 25.9-31.6l25.7-31.8c8.5-10.6 17.1-21.3 25.7-31.7l-3-2.7c-7.4 2.7-14.1 6-20.6 9.5-6.5 3.5-12.7 7.2-18.7 11.1-6 3.9-11.8 8-17.5 12.2-2.8 2.1-5.6 4.3-8.3 6.4-2.7 2.1-5.4 4.2-8 6.5-9.6 7.9-18.9 16.3-27.7 25.2 0.4-25.7 5.9-53.9 21.2-80.7 8.5-14.9 19.6-28.5 33-40.4l45.2-40.1-57.2-19.3c-20.1-6.8-39-16.1-56.3-27.7-33.9-22.8-57.4-51.4-73.6-78.8 5.5 2 10.9 4 16.4 6.1 12.7 4.8 25.3 10 38.1 14.9l38.2 14.6c12.7 4.8 25.5 9.7 38.1 14.6l1.6-3.6c-4.8-6.2-10-11.6-15.4-16.7-5.3-5.1-10.8-9.9-16.4-14.4-5.6-4.5-11.3-8.8-17-12.8-2.9-2-5.8-4-8.6-5.9-2.9-1.9-5.7-3.8-8.6-5.6-18.3-11.7-37.7-22-58.5-30.3 27.6-17 67.2-33.1 109-22.3 17.8 4.6 34.5 13.6 49.6 26.8l66.1 57.6-8.3-87.3c-1.5-16.1-1-32.2 1.7-47.7 9.5-56 44.1-96.7 73.3-121.9-0.2 10.7-0.6 21.4-1.2 32.1-0.7 13.6-1.7 27.2-2.4 40.8l-2.1 40.9c-0.6 13.6-1.3 27.3-2.1 40.8l4 0.4c4.4-6.5 7.9-13.1 11.1-19.8 3.2-6.6 6.1-13.3 8.6-20 2.6-6.7 4.9-13.4 6.9-20.1 1.1-3.4 2-6.8 3-10 0.9-3.3 1.9-6.6 2.7-10 3.1-11.9 5.6-24 7.5-36.3 13.5 19.9 25.2 44 30.7 72.6 3.9 20.2 4.4 41.1 1.6 62.1l-9.7 71.5 62.2-36.7c16.5-9.7 50.6-25.5 94-21.6 42.2 3.7 72.9 23.9 91 39.8-0.9 2.4-1.9 4.9-3 7.5-9.5 2.8-19 5.5-28.5 8.1-13.1 3.5-26.4 6.8-39.5 10.4L708 490.4c-13.1 3.6-26.3 7.2-39.4 10.6l0.8 3.9c7.6 2.2 14.9 3.5 22.2 4.5 7.3 1 14.5 1.6 21.7 2 7.2 0.4 14.3 0.5 21.3 0.4 3.5 0 7-0.2 10.5-0.3 3.4-0.2 6.8-0.3 10.3-0.5 11.3-0.7 22.6-1.9 33.9-3.6-14 18.6-32.8 36.6-57.8 49.6z" p-id="17466" fill="#56d4fd"></path></svg>